HIERARCHY
ROOT Hips
{
    OFFSET 0.000000 0.000000 0.000000
    CHANNELS 6 Xposition Yposition Zposition Zrotation Xrotation Yrotation
    JOINT Spine
    {
        OFFSET -0.000000 0.081015 0.000000
        CHANNELS 3 Zrotation Xrotation Yrotation
        JOINT Spine1
        {
            OFFSET -0.000000 0.240812 0.000000
            CHANNELS 3 Zrotation Xrotation Yrotation
            JOINT Neck
            {
                OFFSET -0.000000 0.239823 0.021802
                CHANNELS 3 Zrotation Xrotation Yrotation
                JOINT Head
                {
                    OFFSET -0.000000 0.148909 -0.021273
                    CHANNELS 3 Zrotation Xrotation Yrotation
                    End Site
                    {
                        OFFSET -0.000000 0.197598 0.000000
                    }
                }
            }
            JOINT LeftShoulder
            {
                OFFSET 0.039829 0.224972 -0.001181
                CHANNELS 3 Zrotation Xrotation Yrotation
                JOINT LeftArm
                {
                    OFFSET 0.107364 0.000000 0.000000
                    CHANNELS 3 Zrotation Xrotation Yrotation
                    JOINT LeftForeArm
                    {
                        OFFSET 0.283104 0.000000 0.000000
                        CHANNELS 3 Zrotation Xrotation Yrotation
                        JOINT LeftHand
                        {
                            OFFSET 0.324767 0.000000 0.000000
                            CHANNELS 3 Zrotation Xrotation Yrotation
                            End Site
                            {
                                OFFSET 0.148198 0.000000 0.000000
                            }
                        }
                    }
                }
            }
            JOINT RightShoulder
            {
                OFFSET -0.039119 0.224972 -0.001181
                CHANNELS 3 Zrotation Xrotation Yrotation
                JOINT RightArm
                {
                    OFFSET -0.107364 0.000000 0.000000
                    CHANNELS 3 Zrotation Xrotation Yrotation
                    JOINT RightForeArm
                    {
                        OFFSET -0.283104 0.000000 0.000000
                        CHANNELS 3 Zrotation Xrotation Yrotation
                        JOINT RightHand
                        {
                            OFFSET -0.324767 0.000000 0.000000
                            CHANNELS 3 Zrotation Xrotation Yrotation
                            End Site
                            {
                                OFFSET -0.148198 0.000000 0.000000
                            }
                        }
                    }
                }
            }
        }
    }
    JOINT LeftUpLeg
    {
        OFFSET 0.098799 0.000000 0.000000
        CHANNELS 3 Zrotation Xrotation Yrotation
        JOINT LeftLeg
        {
            OFFSET -0.000000 -0.332632 0.000000
            CHANNELS 3 Zrotation Xrotation Yrotation
            JOINT LeftFoot
            {
                OFFSET -0.000000 -0.498967 0.000000
                CHANNELS 3 Zrotation Xrotation Yrotation
                JOINT LeftToeBase
                {
                    OFFSET -0.000000 -0.064219 0.148198
                    CHANNELS 3 Zrotation Xrotation Yrotation
                    End Site
                    {
                        OFFSET -0.000000 0.000000 0.039520
                    }
                }
            }
        }
    }
    JOINT RightUpLeg
    {
        OFFSET -0.098799 0.000000 0.000000
        CHANNELS 3 Zrotation Xrotation Yrotation
        JOINT RightLeg
        {
            OFFSET -0.000000 -0.332632 0.000000
            CHANNELS 3 Zrotation Xrotation Yrotation
            JOINT RightFoot
            {
                OFFSET -0.000000 -0.498967 0.000000
                CHANNELS 3 Zrotation Xrotation Yrotation
                JOINT RightToeBase
                {
                    OFFSET -0.000000 -0.064219 0.148198
                    CHANNELS 3 Zrotation Xrotation Yrotation
                    End Site
                    {
                        OFFSET -0.000000 0.000000 0.039520
                    }
                }
            }
        }
    }
}
MOTION
Frames:    9
Frame Time:    0.010000
0.000392    0.852358    0.626581    5.151350    -9.758973    8.985837    -4.909200    4.467216    1.601729    1.755821    5.311306    0.397023    -4.038917    37.724319    -2.708051    -1.094829    -0.792828    -3.860723    -20.234711    27.148914    1.410505    -45.583637    17.922123    -22.835577    56.973343    -52.391476    -68.491745    51.588562    -10.165885    14.536034    9.121948    29.389429    4.033617    35.977928    37.425011    32.819763    -89.098488    -49.689514    12.293196    -31.667080    -39.374660    -8.214067    1.108163    -14.005877    0.488167    -12.770444    35.052567    5.482918    10.650291    -11.853588    24.259125    0.000000    0.000000    0.000000    -18.498297    17.373133    2.651890    1.617911    12.460291    20.628082    0.000000    0.000000    0.000000    0.000000    0.000000    0.000000    
0.007070    0.852427    0.631672    5.153958    -9.748079    9.932351    -4.664437    4.685388    1.360941    1.726585    5.106204    0.320795    -4.001797    37.609165    -3.032856    -0.784690    -0.567946    -4.137765    -20.299118    27.013281    1.391210    -45.438339    17.683775    -22.618624    55.422607    -52.200787    -70.491608    51.957054    -9.834338    14.003957    9.232004    29.180742    3.661197    35.795712    37.163845    32.776253    -89.154427    -49.624241    12.718490    -31.418823    -39.038750    -7.898480    0.456162    -13.652193    0.838538    -11.837799    35.205704    3.642529    11.055652    -12.179419    24.326750    0.000000    0.000000    0.000000    -18.441250    16.381775    2.431008    1.595818    14.749310    17.252039    0.000000    0.000000    0.000000    0.000000    0.000000    0.000000    
0.014013    0.852984    0.637240    5.181631    -9.782709    10.686128    -4.463158    4.809367    1.208706    1.727377    4.974387    0.272740    -4.047118    37.589558    -3.265358    -0.470240    -0.378179    -4.341558    -20.458076    26.708485    1.312960    -45.330700    17.537930    -22.086096    54.061810    -52.004311    -72.321381    51.852417    -9.584579    13.440854    8.888534    28.903044    3.806411    36.411396    36.755245    32.218430    -88.908676    -49.868095    13.558052    -31.777784    -38.730984    -7.741417    -0.201731    -13.155472    2.278330    -10.233228    35.538597    1.210691    11.399474    -12.588800    24.141468    0.000000    0.000000    0.000000    -18.510067    15.314477    2.090101    1.515113    17.195959    15.372877    0.000000    0.000000    0.000000    0.000000    0.000000    0.000000    
0.020583    0.853685    0.642233    5.182359    -9.752166    11.558325    -4.342203    4.956012    0.908255    1.876736    4.755009    0.169372    -4.184357    37.548374    -3.436150    -0.141837    -0.123406    -4.498999    -20.575535    26.573011    1.354890    -45.233868    17.545586    -21.794037    53.189354    -51.892715    -73.599419    52.106613    -9.313913    13.111321    8.544195    28.498438    3.923875    36.724190    36.403831    31.820276    -87.673882    -51.478237    15.198287    -36.683456    -38.947937    -9.431884    -0.914441    -12.666741    2.782084    -9.028031    35.477570    -0.304300    11.678041    -12.784673    24.043968    0.000000    0.000000    0.000000    -18.468248    14.117532    1.904114    1.473475    19.726950    13.141483    0.000000    0.000000    0.000000    0.000000    0.000000    0.000000    
0.027269    0.854551    0.647631    5.199753    -9.702959    12.131986    -4.288805    4.941516    0.783641    2.046736    4.650805    0.123431    -4.587080    37.567608    -3.478428    0.584264    0.061438    -4.527661    -20.673969    26.588118    1.408012    -45.307510    17.047928    -21.566711    51.695549    -51.575226    -75.546738    52.356117    -8.867679    12.680923    8.414460    28.400002    3.821544    36.381222    36.675484    31.947834    -88.812134    -51.146523    14.521142    -36.578720    -38.832756    -9.470518    -1.688054    -11.954905    3.583765    -7.622834    35.095501    -1.683679    11.934116    -13.019122    23.856104    0.000000    0.000000    0.000000    -18.516184    12.671095    1.356608    1.203969    22.452385    12.078884    0.000000    0.000000    0.000000    0.000000    0.000000    0.000000    
0.033629    0.855359    0.652819    5.216070    -9.640444    12.779933    -4.267587    4.947910    0.580139    2.273243    4.528979    0.048984    -4.147717    37.755371    -3.838567    -0.088587    -0.272545    -4.911727    -20.736050    26.502523    1.563160    -45.381046    17.130959    -21.468603    51.258221    -51.516121    -76.363594    52.894402    -8.555597    12.478476    8.113065    28.166712    3.892217    36.827095    36.368011    31.623564    -89.652031    -49.837196    14.389421    -32.198944    -37.865200    -7.728194    -2.452868    -11.122623    4.127432    -6.338857    34.384357    -2.718328    12.138681    -13.317391    23.370819    0.000000    0.000000    0.000000    -18.532949    11.331453    2.318440    1.624718    25.017883    9.545715    0.000000    0.000000    0.000000    0.000000    0.000000    0.000000    
0.039883    0.856153    0.658098    5.295430    -9.601601    13.409857    -4.359908    4.930100    0.380706    2.500256    4.518533    -0.026643    -4.354031    37.674274    -3.825859    0.351939    -0.068794    -4.876557    -20.748100    26.521311    1.652196    -45.530437    16.743130    -21.322695    50.159637    -51.273510    -77.896927    53.002831    -8.250275    12.023268    7.908979    27.915955    3.999548    36.815948    36.266712    31.543701    -90.056015    -49.853397    14.433932    -32.557743    -37.719757    -7.842394    -3.119008    -10.557891    4.308670    -5.610172    34.176250    -2.931530    12.177552    -13.571741    22.698500    0.000000    0.000000    0.000000    -18.486362    9.750616    0.900839    0.727765    27.982410    10.397083    0.000000    0.000000    0.000000    0.000000    0.000000    0.000000    
0.045914    0.856838    0.663246    5.464988    -9.569430    14.128798    -4.528841    5.020162    0.174786    2.710800    4.381020    -0.104045    -4.335410    37.796280    -4.021041    0.588781    -0.199677    -5.046896    -20.695841    26.570045    1.606987    -45.683525    16.511211    -21.064573    49.390896    -51.146969    -79.035561    52.357311    -8.297732    11.415878    7.808762    27.801933    4.042673    36.638252    36.347416    31.582605    -90.873436    -49.603928    14.008060    -32.862789    -37.573021    -7.878851    -3.773477    -9.693650    3.865655    -5.381833    33.427391    -3.282877    12.463302    -13.683412    22.634153    0.000000    0.000000    0.000000    -18.528519    8.380129    1.444712    1.001515    30.439125    8.977641    0.000000    0.000000    0.000000    0.000000    0.000000    0.000000    
0.052043    0.857600    0.668777    5.665210    -9.635092    14.824660    -4.706888    5.134562    0.022063    3.005645    4.338601    -0.168687    -4.059280    38.043827    -4.442302    0.360252    -0.703688    -5.467259    -20.698088    26.609798    1.541028    -45.762257    16.372540    -20.849491    49.008343    -51.053623    -79.754257    52.452785    -8.093936    11.104766    7.627959    27.678686    4.079697    36.548923    36.486645    31.604284    -91.860542    -49.273167    13.467866    -33.041824    -37.405941    -7.916080    -4.303842    -8.772091    2.975860    -5.674316    32.824001    -3.187901    12.831889    -13.756414    22.843334    0.000000    0.000000    0.000000    -18.598011    7.129617    1.210083    0.932496    32.731194    9.003607    0.000000    0.000000    0.000000    0.000000    0.000000    0.000000    
